<?xml version="1.0" standalone="no"?>
<!DOCTYPE svg PUBLIC "-//W3C//DTD SVG 20010904//EN"
 "http://www.w3.org/TR/2001/REC-SVG-20010904/DTD/svg10.dtd">
<svg version="1.0" xmlns="http://www.w3.org/2000/svg"
 width="41" height="40" viewBox="0 0 1284.000000 588.000000"
 preserveAspectRatio="xMidYMid meet">

<g transform="translate(0.000000,588.000000) scale(0.100000,-0.100000)"
fill="#000000" stroke="none">
<path d="M2847 4999 c-610 -106 -1095 -559 -1257 -1175 -74 -284 -63 -612 33
-904 44 -138 188 -400 268 -490 236 -267 441 -410 720 -504 142 -48 229 -65
383 -76 576 -42 1102 218 1422 700 46 70 84 130 84 134 0 4 16 40 35 82 43 92
91 237 106 318 6 33 15 84 20 111 18 91 22 324 9 425 -26 202 -73 357 -155
522 -95 188 -132 238 -177 238 -33 0 -63 -39 -53 -69 3 -11 24 -46 45 -78 78
-117 161 -311 193 -448 32 -138 39 -202 39 -360 -1 -132 -5 -180 -26 -275 -65
-304 -199 -556 -400 -755 -218 -216 -462 -348 -754 -406 -152 -31 -394 -31
-544 0 -316 63 -570 208 -796 454 -113 123 -239 329 -295 482 -52 142 -56 161
-78 370 -47 441 121 893 443 1201 202 191 402 300 688 375 76 19 201 31 325
30 284 -2 555 -85 787 -242 63 -43 96 -48 121 -21 24 26 21 59 -7 85 -66 61
-300 179 -456 230 -202 66 -500 85 -723 46z"/>
<path d="M2850 4709 c-247 -54 -463 -172 -640 -350 -108 -109 -179 -205 -243
-334 -134 -270 -170 -527 -119 -850 15 -92 57 -208 125 -343 62 -123 79 -148
194 -285 151 -177 400 -322 670 -389 73 -18 118 -22 268 -22 194 -1 297 16
445 71 261 97 515 302 642 520 160 272 202 419 202 713 0 276 -70 504 -226
737 -66 98 -229 262 -329 330 -145 99 -343 181 -515 212 -97 18 -374 12 -474
-10z m402 -104 c273 -38 466 -130 660 -313 168 -160 276 -347 340 -592 19 -73
22 -111 22 -270 0 -168 -3 -195 -27 -290 -32 -124 -121 -310 -199 -415 -178
-239 -459 -412 -747 -460 -117 -20 -335 -17 -426 6 -272 66 -461 180 -644 388
-75 84 -99 121 -154 233 -79 160 -101 228 -123 376 -46 309 39 629 235 889
183 241 459 403 763 447 125 19 176 19 300 1z"/>
<path d="M2847 4205 c-76 -28 -126 -81 -148 -157 -5 -19 -9 -314 -9 -705 -1
-583 1 -677 15 -702 18 -36 40 -44 84 -31 64 18 61 1 61 366 0 255 3 335 13
341 6 4 118 8 247 8 260 0 282 5 293 62 4 23 -12 86 -25 95 -2 1 -120 5 -263
8 l-260 5 -3 254 c-2 249 -2 255 19 277 22 23 22 23 356 26 l335 3 19 24 c34
42 24 103 -22 126 -40 21 -655 21 -712 0z"/>
<path d="M4137 4552 c-22 -25 -21 -55 2 -76 27 -25 72 -17 90 15 13 24 13 29
-2 53 -21 31 -66 35 -90 8z"/>
</g>
</svg>
